<svg xmlns="http://www.w3.org/2000/svg" viewBox="0 0 16 16" id="Java--Streamline-Font-Awesome" height="16" width="16"><desc>Java Streamline Icon: https://streamlinehq.com</desc><!--! Font Awesome Free 6.5.2 by @fontawesome - https://fontawesome.com License - https://fontawesome.com/license/free (Icons: CC BY 4.0, Fonts: SIL OFL 1.1, Code: MIT License) Copyright 2024 Fonticons, Inc.--><path d="M10.635008333333332 9.7424375c0.3001208333333333 -0.2051875 0.7166124999999999 -0.3828083333333333 0.7166124999999999 -0.3828083333333333s-1.1851708333333333 0.21437083333333332 -2.3642166666666666 0.3123708333333333c-1.4424208333333333 0.11943333333333334 -2.992025 0.14393333333333333 -3.7698875 0.0398125 -1.8405375 -0.24499583333333333 1.0106125 -0.9218 1.0106125 -0.9218s-1.10555 -0.0735 -2.4683458333333332 0.5818666666666666c-1.6077875 0.7778625 3.9812 1.1331083333333334 6.875225 0.3705583333333333Zm-2.6153416666666667 -0.98305c-0.5818666666666666 -1.3076708333333333 -2.5449041666666665 -2.4560916666666666 0 -4.465066666666667C11.194212499999999 1.7892291666666664 9.566208333333332 0.15999999999999998 9.566208333333332 0.15999999999999998c0.6584291666666666 2.5877791666666665 -2.315220833333333 3.3717666666666664 -3.3901416666666666 4.979558333333333 -0.7319291666666665 1.0994249999999999 0.3583083333333333 2.2784708333333334 1.8436 3.6198291666666664ZM11.529245833333334 3.3633333333333333c0.0030624999999999997 0 -5.365429166666666 1.3413583333333332 -2.8021499999999997 4.293566666666666 0.7564249999999999 0.8697374999999999 -0.19906249999999998 1.6537291666666667 -0.19906249999999998 1.6537291666666667s1.9201625 -0.9922375 1.0381749999999998 -2.2325333333333335c-0.8238 -1.1576083333333331 -1.4546666666666666 -1.73335 1.9630375 -3.7147625Zm-0.1868125 8.283954166666666c-0.016733333333333333 0.029179166666666666 -0.037337499999999996 0.0559625 -0.06124583333333333 0.07962083333333334 3.929133333333333 -1.0320458333333333 2.4836541666666667 -3.6412625 0.6063666666666666 -2.9797708333333333 -0.10139166666666666 0.037254166666666665 -0.18899999999999997 0.10456666666666665 -0.25112083333333335 0.19293333333333332 0.10962083333333333 -0.039675 0.22227916666666664 -0.07039999999999999 0.33686666666666665 -0.091875 0.9493625 -0.19905833333333334 2.312158333333333 1.2709208333333333 -0.6308666666666667 2.7990916666666665Zm1.4442583333333332 1.9079125000000001s0.44405416666666664 0.36442916666666664 -0.48693333333333333 0.6492374999999999c-1.7731625 0.5359333333333333 -7.3744 0.6982416666666666 -8.930129166666667 0.021437499999999998 -0.5604291666666666 -0.24193333333333333 0.48999166666666666 -0.5818666666666666 0.8207375 -0.6523041666666667 0.3429958333333333 -0.07349583333333333 0.5420541666666666 -0.06124583333333333 0.5420541666666666 -0.06124583333333333 -0.6216791666666666 -0.43793333333333334 -4.021008333333333 0.8605499999999999 -1.727225 1.2311083333333332 6.254766666666666 1.0167375 11.404599999999999 -0.4563083333333333 9.781495833333333 -1.1882333333333333Zm-6.846433333333334 -1.2678583333333333c-2.4101583333333334 0.6737374999999999 1.4669166666666666 2.064095833333333 4.5355 0.7503 -0.29927499999999996 -0.11626666666666666 -0.5881749999999999 -0.25764583333333335 -0.8636125 -0.4226208333333333 -1.3689208333333334 0.26031249999999995 -2.0028499999999996 0.2786833333333333 -3.2462083333333336 0.1378125 -1.025925 -0.116375 -0.42567916666666666 -0.46549583333333333 -0.42567916666666666 -0.46549583333333333Zm5.5062999999999995 2.9767083333333333c-2.4101541666666666 0.45324583333333335 -5.383804166666666 0.4011833333333333 -7.144716666666666 0.11024999999999999 0 -0.0030624999999999997 0.3613708333333333 0.2970583333333333 2.217220833333333 0.4164916666666666 2.8235874999999995 0.1806875 7.160029166666666 -0.10105833333333332 7.261091666666666 -1.4362916666666665 0 0 -0.19599999999999998 0.5053041666666667 -2.3335958333333333 0.90955Zm-1.3352333333333333 -4.293566666666666c-1.812975 0.3491208333333333 -2.8633999999999995 0.3399333333333333 -4.189441666666666 0.20212083333333333 -1.025925 -0.10718749999999999 -0.3552458333333333 -0.6033041666666666 -0.3552458333333333 -0.6033041666666666 -2.6582166666666662 0.8819874999999999 1.4761041666666666 1.88035 5.1908666666666665 0.793175 -0.2400875 -0.084775 -0.460075 -0.218225 -0.6461791666666666 -0.3919916666666666Z" fill="#000000" stroke-width="0.0417"></path></svg>